<svg class="h-full compass-logo py-1 md:py-3" xmlns="http://www.w3.org/2000/svg" viewBox="0 0 565.88 189.39" alt="9 Embers">
<defs>
    <style>.cls-1{fill:#4c4c4d;}.cls-2{fill:#3a70b7;}</style>
</defs>
<title>9 Embers</title>
<g id="Layer_2" data-name="Layer 2">
    <g id="Layer_1-2" data-name="Layer 1">
    <path class="cls-1 dark:fill-gray-300" d="M197.58,53.24V59H153.7V92.29h40.16V105H153.7v35.5h44.5V146a7.19,7.19,0,0,1-7.19,7.19H139.28v-107h51.31A7,7,0,0,1,197.58,53.24Z"></path>
    <path class="cls-1 dark:fill-gray-300" d="M219.31,75.86V92c3.57-10.85,11.78-18,24.34-18,11.48,0,18.76,6,21.25,18.29C268.77,81.44,277.3,74,289.55,74c13.95,0,22,9.45,22,25.74v53.49h-14V103c0-10.39-2.17-16.28-10.54-16.28-11,0-21.4,10.85-21.4,38.92v27.6h-14V102.68c0-9.61-2-16-10.55-16-11,0-21.24,10.85-21.24,38.92v27.6H206V83.05a7.19,7.19,0,0,1,7.2-7.19Z"></path>
    <path class="cls-1 dark:fill-gray-300" d="M334.67,34.61v53.5c5-9.31,14.11-14,25-14,22.33,0,26.82,19.54,26.82,38.76,0,20.16-5,41.87-29.77,41.87-9,0-17.37-2.95-22.95-11.94l-.15,10.39H320.72V41.8a7.19,7.19,0,0,1,7.19-7.19Zm21.56,52a19.38,19.38,0,0,0-14.58,6.51c-5.12,5.73-7.44,14.11-7.44,23.88,0,9.3,2.17,15.81,6.35,20.15a19.05,19.05,0,0,0,14,5.58c14.42,0,17.68-12.71,17.68-28.68C372.2,99.58,369.56,86.56,356.23,86.56Z"></path>
    <path class="cls-1 dark:fill-gray-300" d="M456.86,142.22c-8.38,8.53-17.68,12.56-30.55,12.56-10.85,0-18.45-2.95-23.72-8.22-6.2-6.2-9.46-15-9.46-29.77,0-12.25,2.33-25.12,9.15-32.72C407.24,78.49,415,74,427.09,74c22.32,0,30.54,14.88,30.54,33.18,0,2.48-.15,6.51-.46,9.46l-49.62.31c.31,15.81,2.79,25.89,18.76,25.89a31.84,31.84,0,0,0,22.95-9.3Zm-13.65-36.44c.16-12.56-2.63-20.16-16.28-20.16-14.11,0-18.14,8.07-18.92,20.32Z"></path>
    <path class="cls-1 dark:fill-gray-300" d="M479.67,75.86l-.16,15.35C484,79.11,492.07,74,501.06,74a20,20,0,0,1,9.31,2.17l-3.88,13c-1.39-.93-4.5-1.4-6.67-1.4-13.49,0-19.53,17.22-19.53,35.67v29.77h-14V83.05a7.19,7.19,0,0,1,7.19-7.19Z"></path>
    <path class="cls-1 dark:fill-gray-300" d="M556.42,91.52a26.92,26.92,0,0,0-17.21-5.59c-8.07,0-13,2.64-13,9.46,0,15.35,39.7,8.69,39.7,36.6,0,16.74-14.89,22.79-29.62,22.79-9.77,0-20-2.64-25.58-9.31l7.28-9.14c5,5,11.63,7.13,19.54,7.13,8.22,0,14.42-2.33,14.42-10.86,0-16.58-39.85-9.3-39.85-36.43,0-14.89,12.72-21.86,28.53-21.86,8.84,0,17.37,2.17,23.26,8.06Z"></path>
    <path class="cls-2" d="M90.16,31.68a19.1,19.1,0,0,0-3.79,14.89c1.46,8.93-7,9.74-9.34-5.15s-12-20.57-18.67-26.8c3.21,4.87,4.67,16.24-4.08,16S44.07,5.14,51.07,0C25.4,13,42.32,35.2,43.19,55.23S20.73,66.33,23.94,56,21.31,32.76,8.76,33.57c14,7.85,2.73,18.9-5.54,47.11-19.61,66.92,56.21,64.09,68.55,37.4C55.19,136.77,3.31,117,19.57,81.57c0,4.88,12.71,5.81,25.66-2.79C58.36,70.07,61.86,49,61.57,42.51c0,0,9.34,8.93,9.92,19.22s4.38,33,14.19,15.07c21.78,27.72.81,110.57-62.5,105.75,13,18.69,98.56,1.32,95.6-80C117.45,66.09,92.36,37,90.16,31.68Zm2.32,29.77,0,.12C92.31,61.29,92.36,61.34,92.48,61.45Z"></path>
    </g>
</g>
</svg>