<?xml version="1.0" encoding="utf-8"?>
<!-- Generator: Adobe Illustrator 21.1.0, SVG Export Plug-In . SVG Version: 6.00 Build 0)  -->
<svg version="1.1" id="Layer_1" xmlns="http://www.w3.org/2000/svg" xmlns:xlink="http://www.w3.org/1999/xlink" x="0px" y="0px"
	 viewBox="0 0 346.7 287.3" style="enable-background:new 0 0 346.7 287.3;" xml:space="preserve">
<style type="text/css">
	.st0{fill:#ED7726;}
</style>
<circle class="st0" cx="172.3" cy="57.6" r="48.6"/>
<g>
	<path class="st0" d="M119.5,274c-1,1.7-1.9,3.4-3.3,6.1c15.1-4.2,30-6.7,44.7-7.3V122.9c-2.7-0.4-5.5-1.1-8.3-1.9
		c-16.8-5-27.8-13.9-36.6-28.8c-6.6-11-8-21.5-13-34.6C71,59.5,39,65.4,9,84.4c4.6,1,7.7,1.6,10.9,2.3c31.6,6.9,61.7,17.6,87.4,38
		c28.7,22.8,41.1,52.3,35.3,89C139.2,235.5,130.3,255.1,119.5,274z"/>
	<path class="st0" d="M239.7,57.6c-0.4,1.7-0.6,2.7-0.8,3.6c-4,18.4-4.3,26.4-17.1,40.6c-10.2,11.3-28.2,20.8-41.5,21.8v149.2
		c15.5,0.4,30.9,2.7,46.2,7c-6.6-14.9-14.1-29.2-19.4-44.2c-17.2-49-3-89.7,40.3-118.3c20.5-13.6,43.2-22.1,67-28.1
		c6.4-1.6,12.9-3,20.8-4.7C305.1,65.5,273.1,59.4,239.7,57.6z"/>
</g>
</svg>
